<?xml version="1.0" encoding="utf-8"?>
<!-- Generator: Adobe Illustrator 22.1.0, SVG Export Plug-In . SVG Version: 6.00 Build 0)  -->
<svg version="1.1" id="Layer_1" xmlns="http://www.w3.org/2000/svg" xmlns:xlink="http://www.w3.org/1999/xlink" x="0px" y="0px"
	 viewBox="0 0 375.9 150.2" style="enable-background:new 0 0 375.9 150.2;" xml:space="preserve">
<style type="text/css">
	.st0{fill:#6ABCE9;}
	.st1{fill:#F05755;}
	.st2{fill:none;stroke:#231F20;stroke-width:4.6;stroke-miterlimit:10;}
	.st3{fill:#FFFFFF;}
	.st4{enable-background:new    ;}
	.st5{fill:#231F20;}
</style>
<title>Artboard 6</title>
<rect y="117" class="st0" width="375.9" height="30.1"/>
<rect x="0.8" y="2.5" class="st1" width="374.4" height="31"/>
<line class="st2" x1="0" y1="2.5" x2="375.9" y2="2.5"/>
<line class="st2" x1="0" y1="147.9" x2="375.9" y2="147.9"/>
<path class="st3" d="M10.4,14.8h7.4l2.3-7l2.3,7h7.4l-5.9,4.3l2.3,7l-6-4.3l-6,4.3l2.3-7L10.4,14.8z"/>
<path class="st3" d="M35.4,14.8h7.4l2.3-7l2.3,7h7.3l-5.9,4.3l2.3,7l-6-4.3l-6,4.3l2.3-7L35.4,14.8z"/>
<path class="st3" d="M67.4,8.4h3.1V28h-3.1V8.4z"/>
<path class="st3" d="M75.4,13.9v14.2h-2.8V8.4h3.9l3.2,11.8V8.4h2.8V28h-3.2L75.4,13.9z"/>
<path class="st3" d="M87.8,17.1h4V20h-4v8.1h-3.1V8.4h8.2v2.8h-5.1V17.1z"/>
<path class="st3" d="M94.1,13.1c0-3.1,1.7-4.9,4.7-4.9s4.7,1.8,4.7,4.9v10.2c0,3.1-1.7,4.9-4.7,4.9s-4.7-1.8-4.7-4.9V13.1z
	 M97.2,23.5c0,1.4,0.6,1.9,1.6,1.9s1.6-0.5,1.6-1.9V13c0-1.4-0.6-1.9-1.6-1.9s-1.6,0.5-1.6,1.9V23.5z"/>
<path class="st3" d="M111.9,28.1c-0.3-0.8-0.4-1.6-0.3-2.4v-3.1c0-1.8-0.6-2.5-2-2.5h-1.1v8h-3.1V8.4h4.7c3.2,0,4.6,1.5,4.6,4.5v1.5
	c0,2-0.6,3.3-2,4c1.6,0.6,2,2.1,2,4.2v3c-0.1,0.8,0.1,1.6,0.3,2.4L111.9,28.1z M108.5,11.2v6h1.2c1.2,0,1.8-0.5,1.8-2.1v-1.9
	c0-1.4-0.5-2-1.6-2L108.5,11.2z"/>
<path class="st3" d="M123.2,22.4l2.1-13.9h4.3v19.6h-2.9V14l-2.1,14.1h-2.9l-2.3-13.9v13.9h-2.7V8.4h4.3L123.2,22.4z"/>
<path class="st3" d="M141.9,28.1h-3.1l-0.5-3.6h-3.8l-0.5,3.6h-2.8l3.1-19.6h4.5L141.9,28.1z M134.9,21.8h3l-1.5-9.9L134.9,21.8z"/>
<path class="st3" d="M142.4,8.4h9.5v2.8h-3.2V28h-3.1V11.2h-3.2V8.4z"/>
<path class="st3" d="M156.4,16.7h4.2v2.8h-4.2v5.8h5.3v2.8h-8.4V8.4h8.4v2.8h-5.3V16.7z"/>
<path class="st3" d="M172.4,14.4c2.2,0,3.9,1.7,3.9,3.9s-1.7,3.9-3.9,3.9s-3.9-1.7-3.9-3.9l0,0C168.5,16.1,170.2,14.4,172.4,14.4
	C172.4,14.3,172.4,14.3,172.4,14.4z"/>
<path class="st3" d="M183.4,8.4h4.9c3.1,0,4.6,1.7,4.6,4.9v9.9c0,3.1-1.5,4.9-4.6,4.9h-4.9V8.4z M186.5,11.2v14h1.7
	c1,0,1.6-0.5,1.6-1.9V13.1c0-1.4-0.6-1.9-1.6-1.9L186.5,11.2z"/>
<path class="st3" d="M197.9,16.7h4.2v2.8h-4.2v5.8h5.3v2.8h-8.4V8.4h8.4v2.8h-5.3V16.7z"/>
<path class="st3" d="M214.4,13v0.7c0,2-0.6,3.3-2,4c1.6,0.6,2.3,2.1,2.3,4.2v1.6c0,3-1.6,4.6-4.7,4.6h-4.9V8.4h4.7
	C213,8.4,214.4,9.9,214.4,13z M208.3,11.3v5.2h1.2c1.1,0,1.9-0.5,1.9-2.1v-1.1c0-1.4-0.5-2-1.6-2L208.3,11.3z M208.3,19.3v6h1.7
	c1,0,1.6-0.5,1.6-1.9v-1.7c0-1.8-0.6-2.4-2-2.4H208.3z"/>
<path class="st3" d="M226.6,28.1h-3.1l-0.5-3.6h-3.8l-0.5,3.6h-2.8L219,8.5h4.5L226.6,28.1z M219.6,21.8h3l-1.6-9.9L219.6,21.8z"/>
<path class="st3" d="M227.1,8.4h9.5v2.8h-3.2V28h-3.1V11.2h-3.2V8.4z"/>
<path class="st3" d="M241.1,16.7h4.2v2.8h-4.2v5.8h5.3v2.8H238V8.4h8.4v2.8h-5.3L241.1,16.7z"/>
<path class="st3" d="M257.1,14.4c2.2,0,3.9,1.7,3.9,3.9s-1.7,3.9-3.9,3.9c-2.2,0-3.9-1.7-3.9-3.9l0,0
	C253.2,16.1,254.9,14.4,257.1,14.4L257.1,14.4z"/>
<path class="st3" d="M272.8,24.5l2.4-16h2.8l-3,19.6h-4.6l-3-19.6h3.1L272.8,24.5z"/>
<path class="st3" d="M279.1,13.1c0-3.1,1.7-4.9,4.7-4.9s4.7,1.8,4.7,4.9v10.2c0,3.1-1.7,4.9-4.7,4.9s-4.7-1.8-4.7-4.9V13.1z
	 M282.2,23.5c0,1.4,0.6,1.9,1.6,1.9s1.6-0.5,1.6-1.9V13c0-1.4-0.6-1.9-1.6-1.9s-1.6,0.5-1.6,1.9V23.5z"/>
<path class="st3" d="M289.6,8.4h9.5v2.8h-3.2V28h-3.1V11.2h-3.2L289.6,8.4L289.6,8.4z"/>
<path class="st3" d="M309.4,28.1h-3.1l-0.5-3.6H302l-0.5,3.6h-2.8l3.1-19.6h4.5L309.4,28.1z M302.4,21.8h3l-1.5-9.9L302.4,21.8z"/>
<path class="st3" d="M321.2,14.8h7.4l2.3-7l2.3,7h7.4l-5.9,4.3l2.3,7l-6-4.3l-6,4.3l2.3-7L321.2,14.8z"/>
<path class="st3" d="M346.2,14.8h7.4l2.3-7l2.3,7h7.4l-6,4.3l2.3,7l-6-4.3l-6,4.3l2.3-7L346.2,14.8z"/>
<g class="st4">
	<path class="st5" d="M24.3,90.8l6.1-41.2h7.3L29.8,100H18l-7.8-50.5h8L24.3,90.8z"/>
</g>
<g class="st4">
	<path class="st5" d="M39.1,61.7c0-8.1,4.3-12.7,12-12.7c7.8,0,12,4.6,12,12.7v26.2c0,8.1-4.3,12.7-12,12.7c-7.8,0-12-4.6-12-12.7
		V61.7z M47,88.4c0,3.6,1.6,5,4.1,5s4.1-1.4,4.1-5V61.2c0-3.6-1.6-5-4.1-5s-4.1,1.4-4.1,5V88.4z"/>
	<path class="st5" d="M64.6,49.6h24.5v7.2h-8.3V100h-7.9V56.8h-8.3C64.6,56.8,64.6,49.6,64.6,49.6z"/>
	<path class="st5" d="M90.4,61.7c0-8.1,4.3-12.7,12-12.7c7.8,0,12,4.6,12,12.7v26.2c0,8.1-4.3,12.7-12,12.7c-7.8,0-12-4.6-12-12.7
		V61.7z M98.4,88.4c0,3.6,1.6,5,4.1,5s4.1-1.4,4.1-5V61.2c0-3.6-1.6-5-4.1-5s-4.1,1.4-4.1,5V88.4z"/>
	<path class="st5" d="M127.9,49.6h7.9V100h-7.9V49.6z"/>
	<path class="st5" d="M147.2,63.5V100h-7.1V49.6h9.9l8.1,30.2V49.6h7.1V100h-8.1L147.2,63.5z"/>
	<path class="st5" d="M177.5,72h10.2v7.2h-10.2V100h-7.9V49.6h21v7.2h-13V72H177.5z"/>
	<path class="st5" d="M192.2,61.7c0-8.1,4.3-12.7,12-12.7s12,4.6,12,12.7v26.2c0,8.1-4.3,12.7-12,12.7s-12-4.6-12-12.7V61.7z
		 M200.2,88.4c0,3.6,1.6,5,4.1,5s4.1-1.4,4.1-5V61.2c0-3.6-1.6-5-4.1-5s-4.1,1.4-4.1,5V88.4z"/>
	<path class="st5" d="M236.6,100c-0.4-1.3-0.7-2.1-0.7-6.2v-7.9c0-4.7-1.6-6.4-5.2-6.4H228V100h-8V49.6h12c8.2,0,11.7,3.8,11.7,11.6
		v4c0,5.2-1.7,8.6-5.2,10.2c4,1.7,5.3,5.5,5.3,10.7v7.8c0,2.5,0.1,4.3,0.9,6.1C244.7,100,236.6,100,236.6,100z M227.9,56.8v15.5h3.1
		c3,0,4.8-1.3,4.8-5.3v-5c0-3.6-1.2-5.2-4-5.2H227.9z"/>
	<path class="st5" d="M264.3,85.4l5.4-35.8h11V100h-7.5V63.9l-5.5,36.2h-7.5l-5.9-35.7V100h-6.9V49.6h11L264.3,85.4z"/>
	<path class="st5" d="M310.7,100h-8l-1.4-9.2h-9.7l-1.4,9.2H283l8.1-50.5h11.6L310.7,100z M292.6,84h7.6l-3.8-25.5L292.6,84z"/>
	<path class="st5" d="M313,49.6h12.5c7.9,0,11.8,4.4,11.8,12.5v25.5c0,8.1-3.9,12.5-11.8,12.5H313V49.6z M320.9,56.8v36h4.5
		c2.5,0,4-1.3,4-4.9V61.7c0-3.6-1.5-4.9-4-4.9H320.9z"/>
	<path class="st5" d="M340.3,61.7c0-8.1,4.3-12.7,12-12.7c7.8,0,12,4.6,12,12.7v26.2c0,8.1-4.3,12.7-12,12.7c-7.8,0-12-4.6-12-12.7
		V61.7z M348.2,88.4c0,3.6,1.6,5,4.1,5s4.1-1.4,4.1-5V61.2c0-3.6-1.6-5-4.1-5s-4.1,1.4-4.1,5V88.4z"/>
</g>
<line class="st2" x1="0" y1="33.5" x2="375.9" y2="33.5"/>
<line class="st2" x1="0" y1="116.1" x2="375.9" y2="116.1"/>
<path class="st3" d="M169.5,124.3c-1,0-1.6,0.5-1.6,1.9v2.1h-3v-1.9c0-3.2,1.6-5,4.6-5s4.7,1.8,4.7,5c0,6.2-6.2,8.6-6.2,11.8
	c0,0.1,0,0.3,0,0.4h5.9v2.8h-9V139c0-5.9,6.2-6.8,6.2-12.5C171.1,124.7,170.5,124.3,169.5,124.3z"/>
<path class="st3" d="M177,126.4c0-3.2,1.7-5,4.7-5s4.7,1.8,4.7,5v10.3c0,3.2-1.7,5-4.7,5s-4.7-1.8-4.7-5V126.4z M180.1,136.9
	c0,1.4,0.6,1.9,1.6,1.9s1.6-0.5,1.6-1.9v-10.7c0-1.4-0.6-1.9-1.6-1.9s-1.6,0.5-1.6,1.9V136.9z"/>
<path class="st3" d="M190.4,124.1c2.4,0,2.9-1.2,3.4-2.5h2.1v19.9h-3.1v-15.2h-2.4V124.1z"/>
<path class="st3" d="M210,136.6c0,3.4-1.5,5.2-4.8,5.2c-3.1,0-4.6-1.8-4.6-5v-0.5h2.9v0.7c0,1.4,0.6,1.9,1.6,1.9s1.7-0.5,1.7-2.4
	v-3.6c-0.5,1.1-1.7,1.8-2.9,1.8c-2.3,0-3.5-1.6-3.5-4.5v-3.6c0-3.2,1.7-5,4.7-5s4.7,1.8,4.7,5v10H210z M206.9,129.8v-3.6
	c0-1.4-0.6-1.9-1.6-1.9s-1.6,0.5-1.6,1.9v3.6c0,1.4,0.6,2,1.6,2S206.9,131.2,206.9,129.8L206.9,129.8z"/>
<polygon class="st3" points="52.2,122.8 54.3,129.1 60.9,129.1 55.5,133 57.6,139.3 52.2,135.4 46.9,139.3 48.9,133 43.6,129.1 
	50.2,129.1 "/>
<polygon class="st3" points="29.1,122.8 31.2,129.1 37.8,129.1 32.4,133 34.5,139.3 29.1,135.4 23.8,139.3 25.8,133 20.5,129.1 
	27.1,129.1 "/>
<polygon class="st3" points="75.3,122.8 77.4,129.1 84,129.1 78.6,133 80.7,139.3 75.3,135.4 70,139.3 72,133 66.7,129.1 
	73.3,129.1 "/>
<polygon class="st3" points="98.4,122.8 100.5,129.1 107.1,129.1 101.8,133 103.8,139.3 98.4,135.4 93.1,139.3 95.1,133 89.8,129.1 
	96.4,129.1 "/>
<polygon class="st3" points="121.5,122.8 123.6,129.1 130.2,129.1 124.8,133 126.9,139.3 121.5,135.4 116.2,139.3 118.2,133 
	112.9,129.1 119.5,129.1 "/>
<polygon class="st3" points="144.6,122.8 146.7,129.1 153.3,129.1 148,133 150,139.3 144.6,135.4 139.3,139.3 141.3,133 136,129.1 
	142.6,129.1 "/>
<polygon class="st3" points="253,122.8 255.1,129.1 261.7,129.1 256.3,133 258.4,139.3 253,135.4 247.7,139.3 249.7,133 
	244.4,129.1 251,129.1 "/>
<polygon class="st3" points="229.9,122.8 232,129.1 238.6,129.1 233.2,133 235.3,139.3 229.9,135.4 224.6,139.3 226.6,133 
	221.2,129.1 227.9,129.1 "/>
<polygon class="st3" points="276.1,122.8 278.2,129.1 284.8,129.1 279.5,133 281.5,139.3 276.1,135.4 270.8,139.3 272.8,133 
	267.5,129.1 274.1,129.1 "/>
<polygon class="st3" points="299.2,122.8 301.3,129.1 307.9,129.1 302.5,133 304.6,139.3 299.2,135.4 293.9,139.3 295.9,133 
	290.6,129.1 297.2,129.1 "/>
<polygon class="st3" points="322.4,122.8 324.4,129.1 331,129.1 325.7,133 327.7,139.3 322.4,135.4 317,139.3 319,133 313.7,129.1 
	320.3,129.1 "/>
<polygon class="st3" points="345.5,122.8 347.5,129.1 354.1,129.1 348.8,133 350.8,139.3 345.5,135.4 340.1,139.3 342.1,133 
	336.8,129.1 343.4,129.1 "/>
<g>
	<path class="st3" d="M101.3,5.1l-2.4,2.7h-1.4l1.8-2.7H101.3z"/>
</g>
</svg>
